<?xml version="1.0" standalone="no"?>
<!DOCTYPE svg PUBLIC "-//W3C//DTD SVG 20010904//EN"
 "http://www.w3.org/TR/2001/REC-SVG-20010904/DTD/svg10.dtd">
<svg version="1.0" xmlns="http://www.w3.org/2000/svg"
 width="218.000000pt" height="218.000000pt" viewBox="0 0 218.000000 218.000000"
 preserveAspectRatio="xMidYMid meet">

<g transform="translate(0.000000,218.000000) scale(0.100000,-0.100000)"
fill="#000000" stroke="none">
<path d="M1321 1733 c-46 -37 -20 -123 38 -123 9 0 34 -5 56 -11 l40 -11 -85
-24 c-101 -29 -245 -96 -332 -155 -35 -24 -101 -82 -148 -129 -47 -48 -96 -91
-110 -95 -183 -55 -339 -271 -386 -535 -19 -108 -18 -153 7 -184 45 -57 119
-14 119 71 0 115 72 317 140 393 18 20 29 27 26 17 -46 -146 -10 -314 83 -384
37 -28 114 -53 166 -53 93 0 194 61 238 144 19 35 22 57 22 156 0 110 -2 118
-34 188 -35 73 -105 153 -149 166 -31 10 -28 18 23 65 60 55 173 127 248 159
58 24 229 73 235 68 1 -2 -18 -33 -43 -70 -52 -78 -70 -131 -61 -179 12 -62
66 -90 109 -56 20 15 27 30 27 55 0 57 37 113 141 217 69 68 99 105 99 121 0
52 -104 115 -279 170 -122 39 -161 42 -190 19z m-356 -702 c19 -11 42 -41 64
-83 28 -56 34 -78 34 -135 1 -113 -41 -163 -139 -163 -122 0 -157 149 -78 329
40 89 48 92 119 52z"/>
</g>
</svg>
